<?xml version="1.0" encoding="iso-8859-1"?>
<!-- Uploaded to: SVG Repo, www.svgrepo.com, Generator: SVG Repo Mixer Tools -->
<!DOCTYPE svg PUBLIC "-//W3C//DTD SVG 1.1//EN" "http://www.w3.org/Graphics/SVG/1.1/DTD/svg11.dtd">
<svg fill="#000000" version="1.1" id="Capa_1" xmlns="http://www.w3.org/2000/svg" xmlns:xlink="http://www.w3.org/1999/xlink" 
	 width="800px" height="800px" viewBox="0 0 38 38" xml:space="preserve">
<g>
	<g>
		<g>
			<g>
				<path d="M27.39,25.52c-5.523,1.306-11.254,1.306-16.777,0c-2.81,1.375-5.937,2.412-9.354,2.953
					c11.236,5.601,24.246,5.601,35.482,0C33.325,27.932,30.199,26.895,27.39,25.52z"/>
			</g>
			<g>
				<path d="M12.517,19.229c-2.909,1.604-6.231,2.805-9.916,3.39c2.586,1.288,5.273,2.255,8.012,2.901
					c3.066-1.498,5.735-3.412,7.936-5.593C16.527,19.896,14.507,19.663,12.517,19.229z"/>
			</g>
			<g>
				<path d="M27.39,25.52c2.737-0.646,5.426-1.612,8.012-2.901c-3.685-0.585-7.008-1.785-9.916-3.39
					c-1.991,0.436-4.012,0.668-6.033,0.698C21.653,22.105,24.323,24.021,27.39,25.52z"/>
			</g>
			<g>
				<path d="M25.485,19.229c2.457-0.537,4.869-1.371,7.182-2.522c-3.178-0.505-6.029-1.559-8.512-2.967
					c-1.699,0.384-3.426,0.581-5.154,0.581C20.81,16.192,22.998,17.856,25.485,19.229z"/>
			</g>
			<g>
				<path d="M13.848,13.738c-2.482,1.408-5.335,2.462-8.512,2.967c2.313,1.152,4.725,1.987,7.181,2.523
					c2.488-1.373,4.677-3.037,6.484-4.909C17.273,14.32,15.546,14.123,13.848,13.738z"/>
			</g>
			<g>
				<path d="M24.153,13.738c1.82-0.413,3.604-1.042,5.32-1.896C25.108,11.149,21.504,9.135,19,6.543
					c-2.504,2.592-6.107,4.605-10.473,5.299c1.715,0.854,3.5,1.483,5.319,1.896c1.968-1.117,3.708-2.451,5.153-3.947
					C20.446,11.287,22.187,12.621,24.153,13.738z"/>
			</g>
		</g>
		<g>
			<rect x="17.544" y="31.729" width="2.913" height="6.271"/>
		</g>
		<g>
			<polygon points="19.001,0 19.924,1.869 21.987,2.17 20.494,3.625 20.847,5.68 19.001,4.709 17.155,5.68 17.508,3.625 
				16.015,2.17 18.078,1.869 			"/>
		</g>
	</g>
</g>
</svg>